<?xml version="1.0" encoding="UTF-8" standalone="no"?>
<svg
   version="1.1"
   width="897.16589"
   height="470.29486"
   viewBox="0 0 897.16589 470.29486"
   xml:space="preserve"
   id="svg240"
   sodipodi:docname="Logo.svg"
   inkscape:version="1.2.1 (9c6d41e410, 2022-07-14)"
   xmlns:inkscape="http://www.inkscape.org/namespaces/inkscape"
   xmlns:sodipodi="http://sodipodi.sourceforge.net/DTD/sodipodi-0.dtd"
   xmlns="http://www.w3.org/2000/svg"
   xmlns:svg="http://www.w3.org/2000/svg"><sodipodi:namedview
   id="namedview242"
   pagecolor="#ffffff"
   bordercolor="#111111"
   borderopacity="1"
   inkscape:showpageshadow="0"
   inkscape:pageopacity="0"
   inkscape:pagecheckerboard="1"
   inkscape:deskcolor="#d1d1d1"
   showgrid="false"
   inkscape:zoom="0.30903185"
   inkscape:cx="574.37445"
   inkscape:cy="537.16146"
   inkscape:current-layer="svg240" />
<desc
   id="desc123">Created with Fabric.js 5.2.4</desc>
<defs
   id="defs125" />


<g
   transform="matrix(5.9799058,0,0,5.9799058,448.49891,235.18431)"
   id="g238"
   inkscape:export-filename="Logo.svg"
   inkscape:export-xdpi="96"
   inkscape:export-ydpi="96">
<g
   id="g236">
		<g
   transform="matrix(0.71,-0.71,0.71,0.71,55.87,-20.17)"
   id="Rectangle_1395">
<path
   id="rect131"
   style="opacity:1;vector-effect:non-scaling-stroke;fill:#c80041"
   d="m -4.605,-4.605 h 9.21 v 9.21 h -9.21 z" />
</g>
		<g
   transform="matrix(0.71,-0.71,0.71,0.71,68.49,-20.17)"
   id="Rectangle_1396">
<path
   id="rect134"
   style="opacity:1;vector-effect:non-scaling-stroke;fill:#c80041"
   d="m -4.605,-4.605 h 9.21 v 9.21 h -9.21 z" />
</g>
		<g
   transform="matrix(0.71,-0.71,0.71,0.71,68.49,-32.79)"
   id="Rectangle_1397">
<path
   id="rect137"
   style="opacity:1;vector-effect:non-scaling-stroke;fill:#c80041"
   d="m -4.605,-4.605 h 9.21 v 9.21 h -9.21 z" />
</g>
		<g
   transform="translate(-65.02,-26.05)"
   id="Path_262">
<path
   style="opacity:1;fill:#212721;fill-rule:nonzero;stroke:none;stroke-width:1;stroke-linecap:butt;stroke-linejoin:miter;stroke-miterlimit:4;stroke-dasharray:none;stroke-dashoffset:0"
   vector-effect="non-scaling-stroke"
   transform="translate(-95.02,-95.93)"
   d="m 91.655,107.991 c -1.038411,-0.31471 -1.980081,-0.88756 -2.737,-1.665 v 1.761 H 85.045 V 99.7 h 4.033 v 0.352 c -0.02184,1.25934 0.583857,2.44713 1.616,3.169 1.220308,0.85452 2.688714,1.282 4.177,1.216 1.152357,0.0694 2.302165,-0.17241 3.329,-0.7 0.742563,-0.42354 1.186922,-1.22585 1.152,-2.08 0.03778,-0.88571 -0.386073,-1.727748 -1.12,-2.225 -1.244498,-0.690806 -2.616119,-1.12216 -4.032,-1.268 l -1.536,-0.256 c -2.046786,-0.217461 -3.973001,-1.074373 -5.505,-2.449 -1.256623,-1.330801 -1.915458,-3.116949 -1.824,-4.945 -0.02253,-1.336117 0.361042,-2.647601 1.1,-3.761 0.773582,-1.130324 1.847155,-2.022428 3.1,-2.576 1.455261,-0.643807 3.034022,-0.960584 4.625,-0.928 q 4.065,0 6.017,2.048 v -1.536 h 3.841 v 8.29 h -4.057 v -0.32 c 0.03855,-1.192028 -0.461245,-2.338147 -1.361,-3.121 -0.997989,-0.831799 -2.271199,-1.259889 -3.569,-1.2 -1.053281,-0.06173 -2.099574,0.206749 -2.993,0.768 -0.690208,0.464242 -1.094723,1.2495 -1.072,2.081 -0.02107,0.851601 0.388334,1.656505 1.089,2.141 1.16418,0.687213 2.463874,1.113051 3.809,1.248 l 1.344,0.224 c 2.169788,0.234626 4.22574,1.090548 5.921,2.465 1.28672,1.295473 1.96158,3.07716 1.856,4.9 0.0867,2.06938 -0.80164,4.05975 -2.4,5.377 -1.89515,1.4178 -4.2301,2.1208 -6.593,1.985 -1.469123,0.0347 -2.934061,-0.17063 -4.337,-0.608 z"
   stroke-linecap="round"
   id="path140" />
</g>
		<g
   transform="translate(-47.36,-26.06)"
   id="Path_263">
<path
   style="opacity:1;fill:#212721;fill-rule:nonzero;stroke:none;stroke-width:1;stroke-linecap:butt;stroke-linejoin:miter;stroke-miterlimit:4;stroke-dasharray:none;stroke-dashoffset:0"
   vector-effect="non-scaling-stroke"
   transform="translate(-169,-97.2)"
   d="m 174.075,109.365 h -10.146 v -4.033 h 2.433 v -16.26 h -2.433 v -4.033 h 10.146 v 4.033 h -2.433 v 16.26 h 2.433 z"
   stroke-linecap="round"
   id="path143" />
</g>
		<g
   transform="translate(-23.53,-26.06)"
   id="Path_264">
<path
   style="opacity:1;fill:#212721;fill-rule:nonzero;stroke:none;stroke-width:1;stroke-linecap:butt;stroke-linejoin:miter;stroke-miterlimit:4;stroke-dasharray:none;stroke-dashoffset:0"
   vector-effect="non-scaling-stroke"
   transform="translate(-225.75,-97.2)"
   d="m 219.984,109.365 h -9.955 v -4.033 h 2.433 v -16.26 h -2.433 v -4.033 h 9.471 l 6.305,15.876 6.178,-15.876 h 9.474 v 4.033 H 239 v 16.26 h 2.465 v 4.033 h -10.087 v -4.033 H 234.1 V 91.568 L 228.017,107 h -4.577 l -6.177,-15.363 v 13.7 h 2.721 z"
   stroke-linecap="round"
   id="path146" />
</g>
		<g
   transform="translate(6.79,-26.06)"
   id="Path_265">
<path
   style="opacity:1;fill:#212721;fill-rule:nonzero;stroke:none;stroke-width:1;stroke-linecap:butt;stroke-linejoin:miter;stroke-miterlimit:4;stroke-dasharray:none;stroke-dashoffset:0"
   vector-effect="non-scaling-stroke"
   transform="translate(-339.87,-95.92)"
   d="m 333.294,107.014 c -1.85485,-1.03267 -3.36777,-2.58452 -4.353,-4.465 -2.04853,-4.179483 -2.04853,-9.071517 0,-13.251 0.98523,-1.880483 2.49815,-3.432331 4.353,-4.465 4.125,-2.112199 9.014,-2.112199 13.139,0 1.86121,1.029865 3.37953,2.582954 4.367,4.467 2.04853,4.179483 2.04853,9.071517 0,13.251 -0.98827,1.88362 -2.5073,3.43603 -4.369,4.465 -4.12488,2.11269 -9.01412,2.11269 -13.139,0 z m 10.306,-4.273 c 1.06926,-0.64267 1.92208,-1.5902 2.449,-2.721 1.13091,-2.614269 1.13091,-5.579731 0,-8.194 -0.52712,-1.130661 -1.37989,-2.078144 -2.449,-2.721 -2.33253,-1.280319 -5.15747,-1.280319 -7.49,0 -1.06909,0.642582 -1.92161,1.590172 -2.448,2.721 -1.13127,2.614195 -1.13127,5.579805 0,8.194 0.52619,1.13096 1.37875,2.07861 2.448,2.721 2.33253,1.28032 5.15747,1.28032 7.49,0 z"
   stroke-linecap="round"
   id="path149" />
</g>
		<g
   transform="translate(34.34,-26.06)"
   id="Path_266">
<path
   style="opacity:1;fill:#212721;fill-rule:nonzero;stroke:none;stroke-width:1;stroke-linecap:butt;stroke-linejoin:miter;stroke-miterlimit:4;stroke-dasharray:none;stroke-dashoffset:0"
   vector-effect="non-scaling-stroke"
   transform="translate(-435,-97.2)"
   d="m 431.893,109.365 h -9.826 v -4.033 h 2.464 V 89.072 H 422.1 v -4.033 h 7.842 l 10.818,16.58 V 89.072 h -2.72 v -4.033 h 9.89 v 4.033 h -2.465 v 20.293 h -5.409 l -10.883,-16.8 v 12.771 h 2.721 z"
   stroke-linecap="round"
   id="path152" />
</g>
		<g
   transform="translate(-62.65,6.38)"
   id="Path_267">
<path
   style="opacity:1;fill:#212721;fill-rule:nonzero;stroke:none;stroke-width:1;stroke-linecap:butt;stroke-linejoin:miter;stroke-miterlimit:4;stroke-dasharray:none;stroke-dashoffset:0"
   vector-effect="non-scaling-stroke"
   transform="translate(-97.39,-210.59)"
   d="M 95.314,222.75 H 85.039 v -4.033 h 2.433 v -16.26 h -2.433 v -4.033 h 10.275 v 3.9 h -2.721 v 7.554 l 7.49,-7.554 h -2.145 v -3.9 h 10.114 v 4.033 h -1.985 l -6.146,6.017 6.85,10.146 h 2.977 v 4.129 h -6.786 l -6.817,-10.659 -3.553,3.425 v 3.2 h 2.721 z"
   stroke-linecap="round"
   id="path155" />
</g>
		<g
   transform="translate(-37.63,6.63)"
   id="Path_268">
<path
   style="opacity:1;fill:#212721;fill-rule:nonzero;stroke:none;stroke-width:1;stroke-linecap:butt;stroke-linejoin:miter;stroke-miterlimit:4;stroke-dasharray:none;stroke-dashoffset:0"
   vector-effect="non-scaling-stroke"
   transform="translate(-184.8,-210.84)"
   d="m 177.2,220.669 q -2.5,-2.592 -2.5,-7.554 v -10.658 h -2.273 v -4.033 h 10.243 v 4.033 h -2.72 v 11.171 c -0.089,1.29578 0.36278,2.57054 1.248,3.521 2.12095,1.62142 5.06505,1.62142 7.186,0 0.87547,-0.95546 1.32078,-2.22815 1.232,-3.521 V 202.457 H 186.9 v -4.033 h 10.27 v 4.033 h -2.433 v 10.659 q 0,4.962 -2.481,7.554 -2.481,2.592 -7.506,2.592 -5.057,0 -7.55,-2.593 z"
   stroke-linecap="round"
   id="path158" />
</g>
		<g
   transform="translate(-12.19,6.38)"
   id="Path_269">
<path
   style="opacity:1;fill:#212721;fill-rule:nonzero;stroke:none;stroke-width:1;stroke-linecap:butt;stroke-linejoin:miter;stroke-miterlimit:4;stroke-dasharray:none;stroke-dashoffset:0"
   vector-effect="non-scaling-stroke"
   transform="translate(-276.23,-209.31)"
   d="m 270.725,220.415 c -1.85586,-1.03338 -3.36477,-2.59239 -4.337,-4.481 -1.06138,-2.10122 -1.58892,-4.43152 -1.536,-6.785 -0.0435,-2.25295 0.42709,-4.48617 1.376,-6.53 0.84531,-1.81863 2.20006,-3.35297 3.9,-4.417 1.77495,-1.0697 3.81713,-1.61345 5.889,-1.568 1.45541,-0.0229 2.90133,0.238 4.257,0.768 1.12561,0.41305 2.1127,1.13371 2.849,2.08 v -2.337 h 4.065 v 10.595 h -4.348 v -0.256 c 0.13848,-1.6118 -0.43966,-3.20283 -1.58059,-4.34973 -1.14092,-1.14689 -2.72891,-1.73333 -4.34141,-1.60327 -1.82685,-0.085 -3.59526,0.65514 -4.817,2.016 -1.25463,1.55103 -1.88765,3.51319 -1.776,5.505 -0.0312,1.46391 0.29269,2.91359 0.944,4.225 0.59255,1.17764 1.51598,2.15668 2.657,2.817 1.20537,0.67792 2.57037,1.02046 3.953,0.992 1.2761,0.006 2.53618,-0.28421 3.681,-0.848 1.09533,-0.51856 2.05036,-1.29218 2.785,-2.256 l 3.265,3.329 c -1.15437,1.46071 -2.64142,2.62408 -4.337,3.393 -1.90069,0.87429 -3.97311,1.31166 -6.065,1.28 -2.26049,0.048 -4.4946,-0.49272 -6.483,-1.569 z"
   stroke-linecap="round"
   id="path161" />
</g>
		<g
   transform="translate(14.28,6.38)"
   id="Path_270">
<path
   style="opacity:1;fill:#212721;fill-rule:nonzero;stroke:none;stroke-width:1;stroke-linecap:butt;stroke-linejoin:miter;stroke-miterlimit:4;stroke-dasharray:none;stroke-dashoffset:0"
   vector-effect="non-scaling-stroke"
   transform="translate(-365.41,-210.59)"
   d="m 363.154,222.75 h -10.467 v -4.033 h 2.433 v -16.26 h -2.433 v -4.033 h 10.467 v 4.033 H 360.4 v 6.081 h 10.018 v -6.081 H 367.7 v -4.033 h 10.434 v 4.033 H 375.7 v 16.26 h 2.433 v 4.033 H 367.7 v -4.033 h 2.721 v -6.241 H 360.4 v 6.241 h 2.753 z"
   stroke-linecap="round"
   id="path164" />
</g>
		<g
   transform="translate(39.75,6.38)"
   id="Path_271">
<path
   style="opacity:1;fill:#212721;fill-rule:nonzero;stroke:none;stroke-width:1;stroke-linecap:butt;stroke-linejoin:miter;stroke-miterlimit:4;stroke-dasharray:none;stroke-dashoffset:0"
   vector-effect="non-scaling-stroke"
   transform="translate(-461.49,-210.59)"
   d="M 471.382,222.75 H 451.6 v -4.033 h 2.433 v -16.26 H 451.6 v -4.033 h 19.781 v 6.818 h -4.161 v -2.785 h -7.906 v 6.21 h 8.162 v 3.777 h -8.162 v 6.273 h 7.873 v -2.784 h 4.193 z"
   stroke-linecap="round"
   id="path167" />
</g>
		<g
   transform="translate(63.56,6.38)"
   id="Path_272">
<path
   style="opacity:1;fill:#212721;fill-rule:nonzero;stroke:none;stroke-width:1;stroke-linecap:butt;stroke-linejoin:miter;stroke-miterlimit:4;stroke-dasharray:none;stroke-dashoffset:0"
   vector-effect="non-scaling-stroke"
   transform="translate(-540.98,-210.59)"
   d="m 529.59,222.75 v -4.033 h 2.433 v -16.26 h -2.433 v -4.033 h 10.85 q 4.705,0 7.106,1.921 c 2.59716,2.48732 3.15271,6.42985 1.344,9.538 -0.72303,1.085 -1.73087,1.94994 -2.913,2.5 l 3.457,6.242 h 2.945 v 4.129 h -6.69 l -4.737,-9.218 h -3.681 v 5.185 h 2.721 v 4.033 z m 10.338,-13.027 q 4.705,0 4.705,-3.713 c 0.0888,-1.0794 -0.36008,-2.13323 -1.2,-2.817 -1.08564,-0.67595 -2.35736,-0.99099 -3.633,-0.9 h -2.528 v 7.426 z"
   stroke-linecap="round"
   id="path170" />
</g>
		<g
   transform="translate(-71.04,32)"
   id="Path_273">
<path
   style="opacity:1;fill:#c80041;fill-rule:nonzero;stroke:none;stroke-width:1;stroke-linecap:butt;stroke-linejoin:miter;stroke-miterlimit:4;stroke-dasharray:none;stroke-dashoffset:0"
   vector-effect="non-scaling-stroke"
   transform="translate(-89,-319.33)"
   d="m 92.957,319.631 c 0,2.618 -1.573,4.179 -3.972,4.179 -2.399,0 -3.946,-1.561 -3.946,-4.179 v -4.785 H 86.9 v 4.8 c -0.122355,0.82445 0.249035,1.64423 0.949523,2.0959 0.700488,0.45167 1.600466,0.45167 2.300954,0 0.700488,-0.45167 1.071878,-1.27145 0.949523,-2.0959 v -4.8 h 1.857 z"
   stroke-linecap="round"
   id="path173" />
</g>
		<g
   transform="translate(-62.46,33.1)"
   id="Path_274">
<path
   style="opacity:1;fill:#c80041;fill-rule:nonzero;stroke:none;stroke-width:1;stroke-linecap:butt;stroke-linejoin:miter;stroke-miterlimit:4;stroke-dasharray:none;stroke-dashoffset:0"
   vector-effect="non-scaling-stroke"
   transform="translate(-121.05,-326.41)"
   d="m 124.175,326.212 v 3.388 h -1.793 v -3.237 c 0,-0.98 -0.49,-1.509 -1.328,-1.509 -0.54347,0.0455 -1.03907,0.32875 -1.354,0.774 v 3.972 h -1.792 v -6.177 h 1.792 v 0.439 c 0.4962,-0.41217 1.12196,-0.63598 1.767,-0.632 0.77057,-0.011 1.50875,0.30948 2.02683,0.87999 0.51809,0.57051 0.76617,1.33607 0.68117,2.10201 z"
   stroke-linecap="round"
   id="path176" />
</g>
		<g
   transform="translate(-56.94,31.71)"
   id="Path_275">
<path
   style="opacity:1;fill:#c80041;fill-rule:nonzero;stroke:none;stroke-width:1;stroke-linecap:butt;stroke-linejoin:miter;stroke-miterlimit:4;stroke-dasharray:none;stroke-dashoffset:0"
   vector-effect="non-scaling-stroke"
   transform="translate(-145.95,-318.07)"
   d="m 146.842,322.65 h -1.792 v -9.156 h 1.792 z"
   stroke-linecap="round"
   id="path179" />
</g>
		<g
   transform="translate(-51.52,33.28)"
   id="Path_276">
<path
   style="opacity:1;fill:#c80041;fill-rule:nonzero;stroke:none;stroke-width:1;stroke-linecap:butt;stroke-linejoin:miter;stroke-miterlimit:4;stroke-dasharray:none;stroke-dashoffset:0"
   vector-effect="non-scaling-stroke"
   transform="translate(-158.9,-326.76)"
   d="m 162.2,326.682 c 0.0309,1.34221 -0.75441,2.56935 -1.98613,3.10353 -1.23172,0.53418 -2.66428,0.26889 -3.62304,-0.67092 -0.95877,-0.93982 -1.25259,-2.3668 -0.7431,-3.60894 0.50948,-1.24213 1.72071,-2.05179 3.06327,-2.04767 0.87184,-0.0373 1.72019,0.28818 2.34337,0.89904 0.62317,0.61086 0.96551,1.45255 0.94563,2.32496 z m -1.767,0 c 0.0325,-0.56913 -0.25266,-1.1095 -0.74083,-1.40386 -0.48817,-0.29436 -1.09917,-0.29436 -1.58734,0 -0.48817,0.29436 -0.77333,0.83473 -0.74083,1.40386 -0.0536,0.58195 0.22657,1.14415 0.72349,1.45171 0.49693,0.30757 1.12509,0.30757 1.62202,0 0.49692,-0.30756 0.77711,-0.86976 0.72349,-1.45171 z"
   stroke-linecap="round"
   id="path182" />
</g>
		<g
   transform="translate(-44.07,33.2)"
   id="Path_277">
<path
   style="opacity:1;fill:#c80041;fill-rule:nonzero;stroke:none;stroke-width:1;stroke-linecap:butt;stroke-linejoin:miter;stroke-miterlimit:4;stroke-dasharray:none;stroke-dashoffset:0"
   vector-effect="non-scaling-stroke"
   transform="translate(-185.15,-326.68)"
   d="m 186.561,327.34 h 1.793 c -0.21192,1.53295 -1.56265,2.64813 -3.108,2.566 -1.17097,0.0292 -2.26569,-0.57886 -2.85976,-1.58837 -0.59406,-1.00951 -0.59406,-2.26175 0,-3.27126 0.59407,-1.00951 1.68879,-1.61754 2.85976,-1.58837 1.54535,-0.0821 2.89608,1.03305 3.108,2.566 h -1.793 c -0.1371,-0.60642 -0.69573,-1.02242 -1.316,-0.98 -0.866,0.048 -1.54365,0.76417 -1.54365,1.6315 0,0.86733 0.67765,1.58354 1.54365,1.6315 0.61745,0.0475 1.17685,-0.36356 1.316,-0.967 z"
   stroke-linecap="round"
   id="path185" />
</g>
		<g
   transform="translate(-36.3,31.71)"
   id="Path_278">
<path
   style="opacity:1;fill:#c80041;fill-rule:nonzero;stroke:none;stroke-width:1;stroke-linecap:butt;stroke-linejoin:miter;stroke-miterlimit:4;stroke-dasharray:none;stroke-dashoffset:0"
   vector-effect="non-scaling-stroke"
   transform="translate(-212.01,-318.07)"
   d="m 210.46,321.374 v 1.277 h -1.793 v -9.156 h 1.793 v 5.546 l 2.386,-2.567 h 2.231 l -2.4,2.554 2.669,3.624 h -2.256 l -1.638,-2.321 z"
   stroke-linecap="round"
   id="path188" />
</g>
		<g
   transform="translate(-31.14,31.59)"
   id="Path_279">
<path
   style="opacity:1;fill:#c80041;fill-rule:nonzero;stroke:none;stroke-width:1;stroke-linecap:butt;stroke-linejoin:miter;stroke-miterlimit:4;stroke-dasharray:none;stroke-dashoffset:0"
   vector-effect="non-scaling-stroke"
   transform="translate(-235.67,-317.31)"
   d="m 234.593,313.65 c 0.0177,-0.58176 0.49447,-1.04419 1.0765,-1.04419 0.58203,0 1.05877,0.46243 1.0765,1.04419 -0.0302,0.57247 -0.50323,1.02115 -1.0765,1.02115 -0.57327,0 -1.04627,-0.44868 -1.0765,-1.02115 z m 1.986,2.179 v 6.178 h -1.792 v -6.178 z"
   stroke-linecap="round"
   id="path191" />
</g>
		<g
   transform="translate(-25.47,33.1)"
   id="Path_280">
<path
   style="opacity:1;fill:#c80041;fill-rule:nonzero;stroke:none;stroke-width:1;stroke-linecap:butt;stroke-linejoin:miter;stroke-miterlimit:4;stroke-dasharray:none;stroke-dashoffset:0"
   vector-effect="non-scaling-stroke"
   transform="translate(-250.36,-326.41)"
   d="m 253.485,326.212 v 3.388 h -1.793 v -3.237 c 0,-0.98 -0.49,-1.509 -1.328,-1.509 -0.54347,0.0455 -1.03907,0.32875 -1.354,0.774 v 3.972 h -1.792 v -6.177 h 1.792 v 0.439 c 0.49625,-0.41209 1.12197,-0.63589 1.767,-0.632 0.77057,-0.011 1.50875,0.30948 2.02683,0.87999 0.51809,0.57051 0.76617,1.33607 0.68117,2.10201 z"
   stroke-linecap="round"
   id="path194" />
</g>
		<g
   transform="translate(-17.94,34.62)"
   id="Path_281">
<path
   style="opacity:1;fill:#c80041;fill-rule:nonzero;stroke:none;stroke-width:1;stroke-linecap:butt;stroke-linejoin:miter;stroke-miterlimit:4;stroke-dasharray:none;stroke-dashoffset:0"
   vector-effect="non-scaling-stroke"
   transform="translate(-276.27,-327.94)"
   d="m 279.578,323.426 v 6.1 c 0.0436,0.85257 -0.28313,1.68243 -0.89628,2.27642 -0.61315,0.59399 -1.45296,0.89422 -2.30372,0.82358 -1.62742,0.13631 -3.06787,-1.04707 -3.25,-2.67 h 1.806 c 0.077,0.645 0.593,1.07 1.444,1.07 0.39338,0.0194 0.77581,-0.13293 1.04811,-0.4175 0.27229,-0.28458 0.40762,-0.67335 0.37089,-1.0655 v -0.619 c -0.52512,0.32785 -1.13517,0.49375 -1.754,0.477 -1.67403,0.004 -3.0439,-1.3314 -3.082,-3.005 -0.0313,-0.83361 0.28077,-1.64356 0.86332,-2.24066 0.58254,-0.59711 1.38455,-0.92906 2.21868,-0.91834 0.62014,-0.0128 1.23026,0.1577 1.754,0.49 v -0.3 z m -1.78,3.727 v -1.663 c -0.32724,-0.47893 -0.87734,-0.75644 -1.457,-0.735 -0.43568,-0.0157 -0.85776,0.15315 -1.16239,0.46501 -0.30464,0.31187 -0.46354,0.7378 -0.43761,1.17299 0.048,0.84668 0.75199,1.50669 1.6,1.5 0.58131,0.021 1.13254,-0.25855 1.459,-0.74 z"
   stroke-linecap="round"
   id="path197" />
</g>
		<g
   transform="translate(-6.38,31.77)"
   id="Path_282">
<path
   style="opacity:1;fill:#c80041;fill-rule:nonzero;stroke:none;stroke-width:1;stroke-linecap:butt;stroke-linejoin:miter;stroke-miterlimit:4;stroke-dasharray:none;stroke-dashoffset:0"
   vector-effect="non-scaling-stroke"
   transform="translate(-316.67,-318.14)"
   d="m 319.974,319.555 c 0.0277,0.83649 -0.28167,1.64907 -0.85874,2.25528 -0.57706,0.6062 -1.37342,0.95523 -2.21026,0.96872 -0.62013,0.0127 -1.23023,-0.15775 -1.754,-0.49 v 0.361 h -1.793 v -9.156 h 1.793 v 3.34 c 0.97755,-0.62186 2.21816,-0.65469 3.22724,-0.0854 1.00907,0.56929 1.62251,1.64812 1.59576,2.8064 z m -1.767,0 c 0.0143,-0.43683 -0.14686,-0.8612 -0.44743,-1.17849 -0.30058,-0.31729 -0.71561,-0.50113 -1.15257,-0.51051 -0.57293,-0.0176 -1.11783,0.24791 -1.457,0.71 v 1.973 c 0.33442,0.46912 0.88117,0.74005 1.457,0.722 0.44055,-0.013 0.85759,-0.2017 1.15815,-0.52406 0.30057,-0.32235 0.45967,-0.75156 0.44185,-1.19194 z"
   stroke-linecap="round"
   id="path200" />
</g>
		<g
   transform="translate(1.04,33.2)"
   id="Path_283">
<path
   style="opacity:1;fill:#c80041;fill-rule:nonzero;stroke:none;stroke-width:1;stroke-linecap:butt;stroke-linejoin:miter;stroke-miterlimit:4;stroke-dasharray:none;stroke-dashoffset:0"
   vector-effect="non-scaling-stroke"
   transform="translate(-342.91,-326.52)"
   d="M 346.053,326.973 H 341.5 c 0.10445,0.78762 0.80815,1.35498 1.6,1.29 0.40652,0.0451 0.80584,-0.13219 1.045,-0.464 h 1.87 c -0.41732,1.25886 -1.62916,2.07961 -2.953,2 -0.88458,0.0381 -1.74521,-0.2931 -2.3761,-0.91431 -0.63088,-0.62122 -0.9753,-1.47663 -0.9509,-2.36169 -0.041,-0.88184 0.29062,-1.74029 0.9137,-2.36565 0.62309,-0.62537 1.48032,-0.96007 2.3623,-0.92235 0.83938,-0.0284 1.65193,0.29792 2.23842,0.89908 0.5865,0.60115 0.89272,1.4215 0.84358,2.25992 0.002,0.19376 -0.0111,0.38739 -0.04,0.579 z m -4.539,-1.057 h 2.8 c -0.008,-0.33155 -0.14938,-0.64587 -0.39221,-0.87175 -0.24282,-0.22589 -0.56653,-0.34424 -0.89779,-0.32825 -0.73508,-0.0427 -1.38504,0.47335 -1.51,1.199 z"
   stroke-linecap="round"
   id="path203" />
</g>
		<g
   transform="translate(7.52,32.19)"
   id="Path_284">
<path
   style="opacity:1;fill:#c80041;fill-rule:nonzero;stroke:none;stroke-width:1;stroke-linecap:butt;stroke-linejoin:miter;stroke-miterlimit:4;stroke-dasharray:none;stroke-dashoffset:0"
   vector-effect="non-scaling-stroke"
   transform="translate(-366.71,-320.49)"
   d="m 369.432,324.492 c -0.53317,0.19359 -1.0968,0.28979 -1.664,0.284 -0.69465,0.0191 -1.36403,-0.26118 -1.83779,-0.76957 -0.47376,-0.50839 -0.70621,-1.19585 -0.63821,-1.88743 v -2.205 h -1.3 V 318.4 h 1.3 v -2.2 h 1.78 v 2.2 h 2.228 v 1.509 h -2.231 v 2.193 c -0.0244,0.28865 0.0843,0.57265 0.29531,0.77115 0.21097,0.19851 0.50106,0.28978 0.78769,0.24785 0.35393,-0.0127 0.70493,-0.0691 1.045,-0.168 z"
   stroke-linecap="round"
   id="path206" />
</g>
		<g
   transform="translate(13.27,32.19)"
   id="Path_285">
<path
   style="opacity:1;fill:#c80041;fill-rule:nonzero;stroke:none;stroke-width:1;stroke-linecap:butt;stroke-linejoin:miter;stroke-miterlimit:4;stroke-dasharray:none;stroke-dashoffset:0"
   vector-effect="non-scaling-stroke"
   transform="translate(-386.82,-320.49)"
   d="m 389.541,324.492 c -0.53317,0.19359 -1.0968,0.28979 -1.664,0.284 -0.69465,0.0191 -1.36403,-0.26118 -1.83779,-0.76957 -0.47376,-0.50839 -0.70621,-1.19585 -0.63821,-1.88743 v -2.205 h -1.3 V 318.4 h 1.3 v -2.2 h 1.78 v 2.2 h 2.231 v 1.509 h -2.231 v 2.193 c -0.0244,0.28865 0.0843,0.57265 0.29531,0.77115 0.21097,0.19851 0.50106,0.28978 0.78769,0.24785 0.35393,-0.0127 0.70493,-0.0691 1.045,-0.168 z"
   stroke-linecap="round"
   id="path209" />
</g>
		<g
   transform="translate(19.79,33.2)"
   id="Path_286">
<path
   style="opacity:1;fill:#c80041;fill-rule:nonzero;stroke:none;stroke-width:1;stroke-linecap:butt;stroke-linejoin:miter;stroke-miterlimit:4;stroke-dasharray:none;stroke-dashoffset:0"
   vector-effect="non-scaling-stroke"
   transform="translate(-408.47,-326.52)"
   d="m 411.608,326.973 h -4.552 c 0.10492,0.78735 0.80831,1.35446 1.6,1.29 0.40656,0.0453 0.80597,-0.13202 1.045,-0.464 h 1.87 c -0.41732,1.25886 -1.62916,2.07961 -2.953,2 -0.88458,0.0381 -1.74521,-0.2931 -2.3761,-0.91431 -0.63088,-0.62122 -0.9753,-1.47663 -0.9509,-2.36169 -0.041,-0.88184 0.29062,-1.74029 0.9137,-2.36565 0.62309,-0.62537 1.48032,-0.96007 2.3623,-0.92235 0.83938,-0.0284 1.65193,0.29792 2.23842,0.89908 0.5865,0.60115 0.89272,1.4215 0.84358,2.25992 0.002,0.19379 -0.0119,0.38741 -0.041,0.579 z m -4.539,-1.057 h 2.8 c -0.008,-0.33146 -0.14889,-0.64578 -0.39156,-0.8717 -0.24267,-0.22591 -0.56627,-0.34429 -0.89744,-0.3283 -0.73546,-0.0433 -1.386,0.47295 -1.511,1.199 z"
   stroke-linecap="round"
   id="path212" />
</g>
		<g
   transform="translate(26.12,33.14)"
   id="Path_287">
<path
   style="opacity:1;fill:#c80041;fill-rule:nonzero;stroke:none;stroke-width:1;stroke-linecap:butt;stroke-linejoin:miter;stroke-miterlimit:4;stroke-dasharray:none;stroke-dashoffset:0"
   vector-effect="non-scaling-stroke"
   transform="translate(-433.6,-326.68)"
   d="m 433.412,324.347 c 0.58819,-0.54263 1.36732,-0.83027 2.167,-0.8 v 1.7 c -0.81583,-0.0239 -1.60348,0.29958 -2.167,0.89 v 3.688 h -1.793 v -6.178 h 1.793 z"
   stroke-linecap="round"
   id="path215" />
</g>
		<g
   transform="translate(35.47,34.62)"
   id="Path_288">
<path
   style="opacity:1;fill:#c80041;fill-rule:nonzero;stroke:none;stroke-width:1;stroke-linecap:butt;stroke-linejoin:miter;stroke-miterlimit:4;stroke-dasharray:none;stroke-dashoffset:0"
   vector-effect="non-scaling-stroke"
   transform="translate(-462.97,-327.94)"
   d="m 466.279,323.426 v 6.1 c 0.0436,0.85257 -0.28313,1.68243 -0.89628,2.27642 -0.61315,0.59399 -1.45296,0.89422 -2.30372,0.82358 -1.62759,0.13686 -3.06836,-1.0468 -3.25,-2.67 h 1.805 c 0.077,0.645 0.593,1.07 1.445,1.07 0.39321,0.0191 0.77537,-0.13336 1.04743,-0.4179 0.27207,-0.28454 0.40727,-0.67314 0.37057,-1.0651 v -0.619 c -0.52509,0.3279 -1.13516,0.49381 -1.754,0.477 -1.67403,0.004 -3.0439,-1.3314 -3.082,-3.005 -0.0313,-0.83361 0.28077,-1.64356 0.86332,-2.24066 0.58254,-0.59711 1.38455,-0.92906 2.21868,-0.91834 0.62014,-0.0128 1.23028,0.15764 1.754,0.49 v -0.3 z m -1.779,3.727 v -1.663 c -0.32724,-0.47893 -0.87734,-0.75644 -1.457,-0.735 -0.43568,-0.0157 -0.85776,0.15315 -1.16239,0.46501 -0.30464,0.31187 -0.46354,0.7378 -0.43761,1.17299 0.0475,0.84691 0.75179,1.5072 1.6,1.5 0.58061,0.0203 1.13093,-0.25917 1.457,-0.74 z"
   stroke-linecap="round"
   id="path218" />
</g>
		<g
   transform="translate(42.34,33.14)"
   id="Path_289">
<path
   style="opacity:1;fill:#c80041;fill-rule:nonzero;stroke:none;stroke-width:1;stroke-linecap:butt;stroke-linejoin:miter;stroke-miterlimit:4;stroke-dasharray:none;stroke-dashoffset:0"
   vector-effect="non-scaling-stroke"
   transform="translate(-490.32,-326.68)"
   d="m 490.13,324.347 c 0.58819,-0.54263 1.36732,-0.83027 2.167,-0.8 v 1.7 c -0.81581,-0.0238 -1.6034,0.29968 -2.167,0.89 v 3.688 h -1.793 v -6.178 h 1.793 z"
   stroke-linecap="round"
   id="path221" />
</g>
		<g
   transform="translate(48.27,33.28)"
   id="Path_290">
<path
   style="opacity:1;fill:#c80041;fill-rule:nonzero;stroke:none;stroke-width:1;stroke-linecap:butt;stroke-linejoin:miter;stroke-miterlimit:4;stroke-dasharray:none;stroke-dashoffset:0"
   vector-effect="non-scaling-stroke"
   transform="translate(-507.74,-326.76)"
   d="m 511.037,326.682 c 0.0309,1.34221 -0.75441,2.56935 -1.98613,3.10353 -1.23172,0.53418 -2.66428,0.26889 -3.62304,-0.67092 -0.95877,-0.93982 -1.25259,-2.3668 -0.7431,-3.60894 0.50948,-1.24213 1.72071,-2.05179 3.06327,-2.04767 0.87184,-0.0373 1.72019,0.28818 2.34337,0.89904 0.62317,0.61086 0.96551,1.45255 0.94563,2.32496 z m -1.767,0 c 0.0325,-0.56913 -0.25266,-1.1095 -0.74083,-1.40386 -0.48817,-0.29436 -1.09917,-0.29436 -1.58734,0 -0.48817,0.29436 -0.77333,0.83473 -0.74083,1.40386 -0.0536,0.58195 0.22657,1.14415 0.72349,1.45171 0.49693,0.30757 1.12509,0.30757 1.62202,0 0.49692,-0.30756 0.77711,-0.86976 0.72349,-1.45171 z"
   stroke-linecap="round"
   id="path224" />
</g>
		<g
   transform="translate(56.83,33.2)"
   id="Path_291">
<path
   style="opacity:1;fill:#c80041;fill-rule:nonzero;stroke:none;stroke-width:1;stroke-linecap:butt;stroke-linejoin:miter;stroke-miterlimit:4;stroke-dasharray:none;stroke-dashoffset:0"
   vector-effect="non-scaling-stroke"
   transform="translate(-533.52,-327)"
   d="m 536.229,330.086 h -1.586 l -1.122,-3.4 -1.135,3.4 h -1.573 l -2.257,-6.178 h 1.922 l 1.135,3.443 1.16,-3.443 h 1.483 l 1.173,3.456 1.135,-3.456 h 1.922 z"
   stroke-linecap="round"
   id="path227" />
</g>
		<g
   transform="translate(64.79,32.19)"
   id="Path_292">
<path
   style="opacity:1;fill:#c80041;fill-rule:nonzero;stroke:none;stroke-width:1;stroke-linecap:butt;stroke-linejoin:miter;stroke-miterlimit:4;stroke-dasharray:none;stroke-dashoffset:0"
   vector-effect="non-scaling-stroke"
   transform="translate(-566.94,-320.49)"
   d="m 569.662,324.492 c -0.53317,0.19359 -1.0968,0.28979 -1.664,0.284 -0.69465,0.0191 -1.36403,-0.26118 -1.83779,-0.76957 -0.47376,-0.50839 -0.70621,-1.19585 -0.63821,-1.88743 v -2.205 h -1.3 V 318.4 h 1.3 v -2.2 h 1.78 v 2.2 h 2.231 v 1.509 H 567.3 v 2.193 c -0.0244,0.28865 0.0843,0.57265 0.29531,0.77115 0.21097,0.19851 0.50106,0.28978 0.78769,0.24785 0.3536,-0.0127 0.70426,-0.0692 1.044,-0.168 z"
   stroke-linecap="round"
   id="path230" />
</g>
		<g
   transform="translate(71.83,31.71)"
   id="Path_293">
<path
   style="opacity:1;fill:#c80041;fill-rule:nonzero;stroke:none;stroke-width:1;stroke-linecap:butt;stroke-linejoin:miter;stroke-miterlimit:4;stroke-dasharray:none;stroke-dashoffset:0"
   vector-effect="non-scaling-stroke"
   transform="translate(-590.49,-318.07)"
   d="m 593.616,319.259 v 3.392 h -1.793 v -3.237 c 0,-0.98 -0.49,-1.509 -1.328,-1.509 -0.54347,0.0455 -1.03907,0.32875 -1.354,0.774 v 3.972 h -1.793 v -9.156 h 1.793 v 3.418 c 0.4962,-0.41217 1.12196,-0.63598 1.767,-0.632 0.76979,-0.0109 1.50724,0.30908 2.02519,0.87867 0.51794,0.56958 0.76658,1.33403 0.68281,2.09933 z"
   stroke-linecap="round"
   id="path233" />
</g>
</g>
</g>
</svg>
